<svg width="745" height="404" viewBox="0 0 745 404" fill="none" xmlns="http://www.w3.org/2000/svg">
<g clip-path="url(#clip0_333_7914)">
<path d="M71.9276 156.628C65.8767 179.044 79.2526 202.284 101.676 208.309C111.36 210.911 121.162 209.919 129.666 206.149C131.877 205.169 132.743 202.48 131.534 200.386L130.18 198.041C129.146 196.249 126.931 195.49 125.033 196.313C118.786 199.02 111.613 199.713 104.52 197.812C87.8266 193.339 77.9392 176.21 82.4115 159.52C86.8844 142.826 104.014 132.939 120.704 137.411C128.716 139.558 135.159 144.621 139.2 151.151L128.638 157.25C126.54 158.461 126.954 161.603 129.293 162.23L153.154 168.624C154.604 169.012 156.095 168.152 156.484 166.701L162.877 142.841C163.504 140.501 160.989 138.571 158.891 139.782L148.616 145.715C143.18 136.773 134.425 129.829 123.519 126.907C101.064 120.89 77.9833 134.194 71.9276 156.628ZM98.1564 177.515L97.0995 175.01C96.224 172.935 97.1965 170.543 99.2717 169.668L107.344 166.262L111.934 149.135C112.517 146.959 114.753 145.668 116.928 146.251L119.554 146.955C121.73 147.538 123.021 149.774 122.438 151.949L116.472 174.214L103.499 179.688C101.424 180.563 99.0319 179.591 98.1564 177.515Z" fill="#847ECC"/>
<path d="M625.831 305.654L600.714 311.559L592.884 327.438C592.682 327.849 592.651 328.324 592.798 328.758C592.945 329.192 593.259 329.55 593.67 329.753L604.542 335.078C604.952 335.278 605.426 335.307 605.858 335.159C606.29 335.011 606.646 334.698 606.848 334.288L611.421 325.015C611.623 324.604 611.981 324.29 612.415 324.143C612.849 323.995 613.324 324.026 613.735 324.229L619.936 327.286C620.347 327.489 620.661 327.847 620.808 328.281C620.956 328.715 620.925 329.19 620.722 329.601L616.153 338.867C616.052 339.071 615.992 339.293 615.976 339.52C615.961 339.747 615.991 339.974 616.063 340.19C616.136 340.405 616.251 340.604 616.401 340.775C616.55 340.946 616.733 341.086 616.937 341.187L627.775 346.568C628.186 346.771 628.661 346.802 629.095 346.655C629.529 346.507 629.887 346.194 630.09 345.782L637.924 329.893L627.314 306.385C627.187 306.112 626.971 305.891 626.702 305.758C626.432 305.625 626.125 305.588 625.831 305.654ZM649.118 329.566L644.31 318.896L650.927 305.476C651.079 305.168 651.102 304.812 650.992 304.486C650.881 304.16 650.646 303.892 650.337 303.74L644.912 301.065C644.603 300.913 644.247 300.89 643.922 301C643.596 301.111 643.328 301.346 643.176 301.654L639.707 308.689L634.551 297.276C634.057 296.18 633.197 295.291 632.119 294.759C631.041 294.227 629.811 294.087 628.641 294.361L594.157 302.467C593.991 302.507 593.835 302.578 593.697 302.678C593.558 302.778 593.441 302.904 593.352 303.048C593.263 303.193 593.203 303.355 593.176 303.523C593.149 303.691 593.155 303.863 593.194 304.028L594.184 308.25C594.223 308.416 594.294 308.573 594.394 308.711C594.493 308.85 594.619 308.967 594.764 309.057C594.909 309.146 595.07 309.207 595.238 309.234C595.407 309.261 595.579 309.255 595.745 309.216L627.79 301.682C628.083 301.616 628.391 301.652 628.66 301.785C628.93 301.918 629.146 302.14 629.272 302.412L642.808 332.421C642.878 332.576 642.978 332.717 643.101 332.834C643.225 332.95 643.371 333.042 643.53 333.102C643.689 333.163 643.859 333.192 644.029 333.187C644.199 333.182 644.367 333.143 644.522 333.073L648.474 331.288C648.629 331.218 648.77 331.117 648.886 330.992C649.003 330.868 649.094 330.721 649.154 330.561C649.213 330.401 649.241 330.231 649.235 330.06C649.229 329.89 649.189 329.722 649.118 329.566Z" fill="#847ECC"/>
<path d="M117.985 234.247L89.2227 250.871C88.5557 251.257 87.7032 251.029 87.3177 250.362C86.9322 249.695 87.1602 248.843 87.8271 248.457L116.8 231.711C117.467 231.325 117.695 230.473 117.31 229.806C116.154 227.806 113.595 227.121 111.595 228.277L83.8289 244.326C81.1617 245.868 80.2494 249.279 81.791 251.946L95.7463 276.09C97.2879 278.757 100.699 279.67 103.366 278.128L133.335 260.806C135.45 259.584 136.229 256.966 135.075 254.969L123.911 235.654C122.757 233.656 120.099 233.025 117.985 234.247ZM123.645 251.912C122.312 252.683 120.606 252.227 119.835 250.893C119.065 249.56 119.521 247.854 120.854 247.083C122.187 246.313 123.894 246.769 124.664 248.102C125.435 249.436 124.978 251.142 123.645 251.912Z" fill="#3F3D56"/>
<path d="M591.837 198.059L574.443 192.97L572.604 181.32C570.715 169.344 560.848 159.077 547.464 155.16L510.569 144.364C497.187 140.449 483.339 143.776 475.289 152.844L467.46 161.665L450.07 156.576C447.801 155.912 445.608 157.231 445.615 159.255L445.63 165.669C445.632 167.096 446.757 168.427 448.357 168.895L454.188 170.602C449.442 172.346 445.702 175.805 444.318 180.534L440.862 192.343C439.702 196.309 440.444 200.413 442.492 204.019L438.599 217.322C437.327 221.67 440.459 226.413 445.592 227.916L454.889 230.636C460.022 232.138 465.217 229.831 466.489 225.483L468.793 217.61L543.165 239.373L540.861 247.246C539.589 251.593 542.721 256.337 547.854 257.839L557.151 260.559C562.284 262.062 567.479 259.754 568.751 255.407L572.644 242.104C576.312 240.173 579.149 237.117 580.311 233.148L583.766 221.339C585.15 216.61 583.864 211.68 580.81 207.653L586.641 209.359C588.242 209.828 589.906 209.313 590.677 208.113L594.148 202.718C595.242 201.016 594.106 198.723 591.837 198.059ZM490.841 163.744C494.27 159.881 500.258 158.441 505.961 160.11L542.857 170.906C548.56 172.575 552.827 177.016 553.633 182.118L555.836 196.072L481.463 174.309L490.841 163.744ZM464.118 199.095C458.54 197.463 455.74 193.235 457.118 188.526C458.496 183.817 463.133 181.766 468.711 183.398C474.289 185.03 480.589 194.542 479.211 199.251C477.833 203.96 469.696 200.727 464.118 199.095ZM557.084 226.298C551.506 224.666 542.909 223.003 544.287 218.294C545.665 213.585 556.099 208.969 561.677 210.602C567.255 212.234 570.055 216.461 568.677 221.17C567.299 225.879 562.662 227.93 557.084 226.298Z" fill="#3F3D56"/>
<path d="M575.693 263.495C569.633 255.577 559.135 241.861 541.08 237.736C507.063 229.965 477.834 263.461 475.074 266.715C447.55 299.177 443.288 355.326 471.05 382.628C485.279 396.621 504.615 399.785 512.907 401.142C522.648 402.736 545.309 406.443 564.424 393.092C574.688 385.924 579.611 376.852 582.938 370.554C598.545 341.004 600.569 295.996 575.693 263.495ZM533.44 386.583C513.498 388.643 494.599 369.929 486.836 352.406C482.504 342.436 480.985 331.47 482.446 320.698C483.906 309.926 488.29 299.76 495.121 291.304C498.001 287.813 513.315 269.251 534.476 271.626C555.288 273.963 567.681 294.971 571.759 308.909C580.992 340.47 561.598 383.674 533.44 386.583Z" fill="#847ECC"/>
<path d="M407.676 390.653H397.189L392.2 350.202H407.678L407.676 390.653Z" fill="#FFB6B6"/>
<path d="M407.396 387.228L396.199 382.673L395.878 382.542L389.696 387.228C386.205 387.228 382.858 388.615 380.39 391.083C377.921 393.552 376.535 396.899 376.534 400.39V400.817H410.347V387.228H407.396Z" fill="#2F2E41"/>
<path d="M538.995 309.986L536.629 320.203L496.095 315.941L499.586 300.861L538.995 309.986Z" fill="#FFB6B6"/>
<path d="M536.261 306.605L535.653 309.215L535.591 309.484L528.648 319.359L528.437 319.653L531.603 326.732C531.213 328.415 531.158 330.16 531.443 331.865C531.727 333.569 532.345 335.202 533.26 336.668C534.176 338.134 535.371 339.405 536.778 340.409C538.185 341.413 539.776 342.13 541.46 342.518L541.872 342.613L549.503 309.675L536.261 306.605Z" fill="#2F2E41"/>
<path d="M400.563 173.232L458.392 175.256L458.794 174.671C458.794 174.671 463.727 186.18 463.727 196.046C463.727 199.326 461.446 220.779 462.606 224.838C462.75 225.342 461.757 226.579 462.083 228.93C462.294 230.455 463.459 229.282 463.727 231.396C463.919 232.914 461.868 233.752 462.083 235.507C462.317 237.425 465.139 243.637 465.393 245.77C468.096 268.482 463.696 274.384 463.696 274.384C463.696 274.384 513.154 295.108 516.213 295.737C521.346 296.793 524.812 306.128 521.967 308.069C520.613 308.993 516.104 326.212 516.104 326.212C515.142 326.386 512.133 324.877 514.05 321.307C514.403 320.65 512.298 322.322 511.948 321.535C511.576 320.699 506.307 324.37 505.88 323.441C502.054 315.102 454.179 303.546 448.612 297.612C440.386 288.845 435.177 277.679 433.745 265.743L428.975 221.938L424.599 241.794L420.977 245.372L421.971 253.716L421.799 261.815L412.756 295.521C412.756 295.521 411.4 358.469 413.578 360.468C414.758 361.551 419.764 374.886 410.29 376.088L393.076 374.76C393.076 374.76 390.757 369.873 391.917 368.133C393.076 366.394 393.007 366.868 391.592 364.022C390.177 361.175 390.757 356.352 390.757 356.352C388.502 333.682 387.612 310.898 388.093 288.122C388.956 250.714 394.185 207.739 394.185 206.863C394.229 205.968 394.064 205.075 393.703 204.254V201.893L395.925 193.526L400.563 173.232Z" fill="#2F2E41"/>
<path d="M463.572 186.759C448.971 189.284 439.18 188.323 433.154 179.36C425.293 169.35 410.997 181.17 398.935 185.564L397.505 184.019L395.072 181.396L397.308 178.864L395.072 173.981L396.938 167.955L399.322 167.519L398.681 162.331L397.678 159.298L400.621 156.067L403.12 148.002L401.32 131.124C398.856 107.989 403.63 84.6595 414.983 64.352L421.815 58.219L424.651 55.6705L428.458 48.5674L432.478 49.036L443.362 50.2938L443.732 51.1817L446.404 57.627L456.111 68.0533C457.483 69.528 458.526 71.278 459.17 73.1871C459.815 75.0961 460.045 77.1204 459.846 79.1253L459.566 81.9369L459.361 83.9593L458.391 93.6931L454.436 133.459L454.14 135.572L450.959 158.435C456.13 163.433 456.445 162.342 458.64 171.139C458.886 172.117 461.747 174.296 461.928 175.25C462.183 176.598 463.572 186.759 463.572 186.759Z" fill="#3F3D56"/>
<path d="M433.926 44.3773C444.367 44.3773 452.831 35.9131 452.831 25.4719C452.831 15.0307 444.367 6.56641 433.926 6.56641C423.485 6.56641 415.02 15.0307 415.02 25.4719C415.02 35.9131 423.485 44.3773 433.926 44.3773Z" fill="#FFB6B6"/>
<path d="M453.705 11.2402C452.457 9.89124 450.852 8.92278 449.077 8.44654C447.302 7.97031 445.428 8.00571 443.672 8.54869C442.902 6.34608 441.543 4.39686 439.742 2.91328C437.941 1.4297 435.768 0.46863 433.459 0.134701C431.149 -0.199228 428.793 0.106791 426.645 1.01944C424.498 1.93208 422.642 3.41636 421.28 5.31068C420.657 5.03098 419.973 4.91684 419.293 4.97932C418.613 5.0418 417.961 5.27879 417.399 5.66732C416.284 6.46 415.386 7.51967 414.787 8.74931C413.242 11.6857 412.521 14.9863 412.703 18.2997C412.884 21.6131 413.96 24.8153 415.817 27.5655C415.077 26.0716 417.158 28.6445 419.185 27.9704C420.927 27.514 428.08 22.9269 429.866 23.1589C431.651 23.3908 432.23 21.9512 433.976 21.5146C435.687 20.9676 440.053 28.0384 440.928 32.7171C441.094 33.6037 441.497 34.7053 442.398 34.7255C443.509 34.7505 443.841 33.1599 444.778 32.5625C445.22 32.338 445.731 32.2936 446.205 32.4387C446.679 32.5838 447.077 32.9072 447.317 33.3406C447.536 33.786 447.646 34.2773 447.636 34.7736C447.627 35.2698 447.499 35.7566 447.264 36.1936C446.785 37.0621 446.169 37.8476 445.44 38.5198L445.925 38.7863C446.403 39.1285 446.985 39.2938 447.571 39.254C448.158 39.2142 448.712 38.9717 449.139 38.5681C450.945 39.3827 455.856 34.7887 455.204 32.0092C456.575 28.6023 457.325 24.9772 457.418 21.3059C457.493 17.6026 456.167 14.0074 453.705 11.2402Z" fill="#2F2E41"/>
<path d="M307.998 74.9446C308.697 75.6021 309.533 76.0982 310.445 76.3979C311.357 76.6976 312.323 76.7938 313.277 76.6795C314.23 76.5652 315.147 76.2433 315.962 75.7365C316.777 75.2297 317.472 74.5502 317.996 73.746L358.408 83.4169L354.373 71.9804L315.721 64.3467C314.311 63.5553 312.661 63.3084 311.081 63.6528C309.502 63.9972 308.104 64.909 307.152 66.2153C306.2 67.5216 305.76 69.1318 305.916 70.7406C306.072 72.3495 306.813 73.8453 307.998 74.9446Z" fill="#FFB8B8"/>
<path d="M428.732 67.9098L425.495 66.2214L410.728 65.9893L410.188 65.9838L410.158 65.9864L398.836 65.8132L344.167 64.9567L341.968 66.8763L338.589 64.8693L334.758 62.9275L331.242 64.7542L328.234 64.7071L327.776 66.7245L327.772 66.7317L327.759 66.7901L325.723 75.5918L325.719 75.599L325.744 77.675L329.281 81.4864L331.156 82.9238L335.049 84.6455L337.745 81.435L340.905 84.7185L353.864 87.1041C375.529 93.0725 395.476 95.945 410.786 90.4285L412.709 90.3386L427.906 89.6155C429.983 89.519 431.985 88.8094 433.66 87.5762C435.335 86.343 436.606 84.6414 437.315 82.6862L437.319 82.6791C437.799 81.3511 438.005 79.9393 437.923 78.5295C437.856 77.2337 437.544 75.9624 437.003 74.7828C436.034 72.6367 434.377 70.8749 432.294 69.7759L428.732 67.9098Z" fill="#3F3D56"/>
<path d="M654.142 378.295C654.872 378.321 655.593 378.123 656.207 377.726C656.82 377.329 657.297 376.753 657.573 376.076C657.848 375.4 657.909 374.655 657.747 373.942C657.585 373.23 657.207 372.584 656.666 372.093C656.573 371.737 656.506 371.481 656.413 371.125C657.094 369.343 658.292 367.806 659.853 366.711C661.414 365.615 663.267 365.01 665.174 364.974C667.08 364.938 668.955 365.472 670.556 366.508C672.157 367.544 673.413 369.034 674.161 370.788C678.479 380.634 684.043 390.816 681.428 401.731C699.022 363.504 692.465 316.223 665.618 283.931C658.244 279.96 652.23 272.838 650.603 264.517C654.245 265.712 658.743 262.716 655.977 258.918C654.78 257.468 653.572 256.029 652.375 254.579C666.025 239.762 682.675 262.687 667.685 282.653C672.71 288.831 677.075 295.518 680.709 302.604C679.814 295.051 680.724 287.394 683.365 280.262C686.047 273.613 691.14 267.987 695.617 262.218C701.06 255.189 712.43 258.3 713.255 267.146C708.187 268.865 707.596 276.216 713.422 277.166C712.055 293.649 701.44 308.887 686.69 316.251C692.309 331.553 694.601 347.878 693.415 364.136C695.85 345.125 716.186 340.323 730.359 332.642C731.26 332.052 732.314 331.736 733.391 331.735C734.468 331.733 735.522 332.045 736.425 332.632C737.328 333.22 738.04 334.057 738.475 335.042C738.91 336.028 739.049 337.118 738.875 338.181C736.917 339 735.044 340.01 733.286 341.199C732.462 341.764 731.833 342.57 731.485 343.507C731.137 344.444 731.088 345.466 731.344 346.432C731.599 347.398 732.148 348.261 732.913 348.904C733.679 349.546 734.624 349.936 735.62 350.02C728.609 367.859 710.159 379.969 691.092 380.083C689.335 388.063 686.754 395.838 683.39 403.284L655.092 403.554C654.987 403.241 654.893 402.917 654.799 402.603C657.42 402.743 660.048 402.561 662.625 402.062C655.616 393.923 650.217 389.788 654.141 378.295L654.142 378.295Z" fill="#847ECC"/>
<path d="M85.1508 298.295C84.4206 298.321 83.6998 298.123 83.0861 297.726C82.4725 297.329 81.9956 296.753 81.7202 296.076C81.4447 295.4 81.3839 294.655 81.5461 293.942C81.7083 293.23 82.0856 292.584 82.6269 292.093C82.7202 291.737 82.7871 291.481 82.8803 291.125C82.1987 289.343 81.0006 287.806 79.4398 286.711C77.8789 285.615 76.0263 285.01 74.1195 284.974C72.2126 284.938 70.3384 285.472 68.7371 286.508C67.1359 287.544 65.8804 289.034 65.1318 290.788C60.8141 300.634 55.2504 310.816 57.8652 321.731C40.2712 283.504 46.8285 236.223 73.6755 203.931C81.0491 199.96 87.0628 192.838 88.6899 184.517C85.0479 185.712 80.5499 182.716 83.3158 178.918C84.5128 177.468 85.7212 176.029 86.9181 174.579C73.268 159.762 56.6177 182.687 71.6077 202.653C66.583 208.831 62.218 215.518 58.5837 222.604C59.4793 215.051 58.5691 207.394 55.9281 200.262C53.2458 193.613 48.1533 187.987 43.6765 182.218C38.2335 175.189 26.8634 178.3 26.0378 187.146C31.1064 188.865 31.6971 196.216 25.8713 197.166C27.2379 213.649 37.853 228.887 52.6031 236.251C46.9844 251.553 44.6919 267.878 45.8783 284.136C43.4433 265.125 23.1069 260.323 8.93389 252.642C8.03279 252.052 6.97945 251.736 5.90235 251.735C4.82525 251.733 3.77095 252.045 2.86808 252.632C1.9652 253.22 1.25277 254.057 0.817694 255.042C0.382616 256.028 0.24371 257.118 0.417899 258.181C2.37636 259 4.24871 260.01 6.00738 261.199C6.83136 261.764 7.46028 262.57 7.80794 263.507C8.15561 264.444 8.20498 265.466 7.9493 266.432C7.69362 267.398 7.14541 268.261 6.3798 268.904C5.61419 269.546 4.66866 269.936 3.67283 270.02C10.6839 287.859 29.1344 299.969 48.2014 300.083C49.9578 308.063 52.5388 315.838 55.9027 323.284L84.2012 323.554C84.3056 323.241 84.4 322.917 84.4943 322.603C81.8734 322.743 79.2452 322.561 76.6684 322.062C83.6766 313.923 89.0759 309.788 85.1517 298.295L85.1508 298.295Z" fill="#847ECC"/>
<path d="M78.2639 296.588C131.433 287.984 164.27 375.765 198.563 370.24C261.41 360.116 235.36 45.1659 284.49 42.4875C326.371 40.2043 380.095 179.186 424.465 262.567C447.787 306.394 460.465 337.567 460.465 337.567C460.465 337.567 441.059 431.735 413.465 394.567C374.046 341.47 344.406 155.528 322.544 164.014C289.068 177.008 326.826 336.881 246.437 386.198C176.22 429.275 39.0649 368.071 38.9826 329.731C38.951 315.007 59.1287 299.685 78.2639 296.588Z" fill="#847ECC"/>
<path d="M333.758 278.63C322.923 281.109 308.695 288.773 309.467 295.836C310.294 303.406 328.371 310.421 342.867 305.957C354.76 302.295 365.582 290.495 363.11 283.69C360.558 276.666 344.294 276.219 333.758 278.63Z" fill="#847ECC"/>
<path d="M618.219 253.222C621.716 247.3 626.718 238.524 623.049 232.304C618.041 223.813 602.508 212.491 592.843 223.535C585.497 231.929 587.147 235.285 587.245 248.317C587.513 283.891 567.373 359.865 588.423 396.018C592.363 402.786 614.142 401.444 622.771 402.286C632.335 403.218 642.713 393.92 642.122 383.158C641.593 373.52 632.536 370.713 623.486 364.374C590.938 341.574 600.109 283.887 618.219 253.222Z" fill="#847ECC"/>
<path d="M206.873 49.4571C206.653 52.0971 206.44 54.7371 206.233 57.3771C206.075 60.4692 205.644 63.5412 204.943 66.5571C204.783 67.3939 204.423 68.1796 203.893 68.8471C202.953 69.9171 204.693 76.177 203.403 76.7771C202.093 77.401 200.687 77.7967 199.243 77.9471C199.183 77.5071 199.103 77.0671 199.013 76.6371C199.003 76.5871 198.993 76.5471 198.983 76.4971C198.575 74.5452 197.819 72.6824 196.753 70.9971C197.005 72.9941 196.782 75.0222 196.103 76.9171C195.993 77.2271 195.863 77.5371 195.723 77.8471C190.053 77.0071 185.143 73.177 181.273 73.2171C178.923 65.3336 177.266 57.2594 176.323 49.0871C176.073 46.9071 175.934 44.4871 177.273 42.7571C178.463 41.2171 180.493 40.6571 182.393 40.2471C188.601 38.9059 194.944 38.2984 201.293 38.4371L190.303 35.8771C193.39 35.703 196.485 35.9963 199.483 36.7471C202.433 37.6371 205.223 39.5871 206.363 42.4571C207.233 44.6471 207.053 47.1071 206.873 49.4571Z" fill="#2F2E41"/>
<path d="M144.977 381.87H134.398L129.365 341.065L144.979 341.066L144.977 381.87Z" fill="#FFB6B6"/>
<path d="M113.047 397.479C113.052 398.664 113.524 399.8 114.362 400.638C115.199 401.477 116.333 401.952 117.518 401.959H137.433L138.05 400.681L140.867 394.868L141.957 400.681L142.199 401.959H149.71L149.603 400.672L147.6 376.652L144.98 376.492L133.659 375.821L130.878 375.651V382.823C128.768 385.067 112.206 393.554 113.047 397.479Z" fill="#2F2E41"/>
<path d="M268.914 370.355L259.713 375.576L235.199 342.569L248.779 334.865L268.914 370.355Z" fill="#FFB6B6"/>
<path d="M248.845 399.688C249.431 400.72 250.402 401.478 251.545 401.795C252.689 402.112 253.911 401.962 254.944 401.378L255.99 400.788H255.999L272.265 391.551L271.747 383.69L276.415 389.199L279.857 387.24L282.943 385.488L280.215 381.499L268.617 364.518L266.256 365.68L256.071 370.679L253.585 371.904L257.117 378.137C256.393 381.142 246.181 396.683 248.845 399.688Z" fill="#2F2E41"/>
<path d="M197.476 181.571C209.868 182.016 207.965 211.373 211.833 236.906C215.284 259.687 225.379 278.925 222.003 279.743L255.416 342.013C242.351 354.149 227.019 362.197 207.857 363.332C187.063 344.224 181.361 300.253 176.586 254.752L171.374 294.71L178.323 358.12L147.582 365.555L126.319 364.036C108.297 291.343 142.393 209.132 157.072 177.897L197.476 181.571Z" fill="#2F2E41"/>
<path d="M210.622 166.382L216.251 149.495L220.271 143.866L221.88 127.784C221.88 84.3608 212.194 91.5916 212.194 91.5916L199.56 76.3196L185.186 75.8704L173.828 75.5154L164.385 91.1959C160.224 92.6644 156.52 95.1964 153.641 98.5403C150.762 101.884 148.809 105.923 147.975 110.256L145.361 123.836L155.137 153.516L154.706 151.31C150.104 159.806 151.275 161.084 155.085 167.462L155.275 169.765C155.451 171.837 156.272 173.802 157.624 175.383C158.975 176.963 160.788 178.08 162.807 178.576C203.522 188.722 207.753 206.472 212.987 199.144C214.203 197.441 209.042 177.118 210.802 177.295C215.625 177.777 210.622 166.382 210.622 166.382Z" fill="#E6E6E6"/>
<path d="M238.484 229.231C237.655 228.468 237.001 227.534 236.569 226.493C236.136 225.453 235.935 224.331 235.979 223.205C236.022 222.079 236.31 220.976 236.822 219.973C237.334 218.969 238.058 218.089 238.943 217.392L228.856 179.953L238.525 174.617L250.182 219.171C251.243 220.749 251.689 222.662 251.434 224.546C251.18 226.431 250.243 228.157 248.801 229.397C247.359 230.637 245.512 231.305 243.611 231.274C241.709 231.244 239.885 230.517 238.484 229.231Z" fill="#FFB6B6"/>
<path d="M210.706 90.4993C210.706 90.4993 228.659 95.9664 230.239 105.512C231.818 115.057 234.578 123.477 233.864 127.382C233.151 131.287 242.057 157.42 240.321 160.425C238.586 163.431 243.254 164.082 241.642 169.01C240.03 173.937 239.132 174.96 240.154 175.858C241.177 176.757 245.588 196.297 245.588 196.297L232.137 200.204L207.364 138.82L210.706 90.4993Z" fill="#E6E6E6"/>
<path d="M139.98 229.231C140.809 228.468 141.462 227.534 141.894 226.493C142.327 225.453 142.528 224.331 142.485 223.205C142.441 222.079 142.153 220.976 141.641 219.973C141.129 218.969 140.405 218.088 139.52 217.392L149.608 179.953L139.938 174.617L128.282 219.171C127.22 220.749 126.775 222.662 127.029 224.546C127.284 226.431 128.221 228.157 129.662 229.397C131.104 230.637 132.951 231.305 134.853 231.274C136.754 231.244 138.578 230.517 139.98 229.231Z" fill="#FFB6B6"/>
<path d="M167.757 90.4993C167.757 90.4993 149.804 95.9664 148.224 105.512C146.645 115.057 143.886 123.477 144.599 127.382C145.312 131.287 136.406 157.42 138.142 160.425C139.878 163.431 135.209 164.082 136.821 169.01C138.433 173.937 139.332 174.96 138.309 175.858C137.286 176.757 132.875 196.297 132.875 196.297L146.326 200.204L171.099 138.82L167.757 90.4993Z" fill="#E6E6E6"/>
<path d="M182.457 73.4144C194.818 73.4144 204.837 63.3945 204.837 51.0345C204.837 38.6744 194.818 28.6545 182.457 28.6545C170.097 28.6545 160.078 38.6744 160.078 51.0345C160.078 63.3945 170.097 73.4144 182.457 73.4144Z" fill="#FFB6B6"/>
<path d="M205.163 86.5298C196.723 79.0248 211.113 57.5882 199.873 43.282L198.523 42.2716C197.506 44.2078 195.854 45.7352 193.843 46.5975C193.424 44.6467 192.72 42.7683 191.753 41.0226C191.996 43.185 191.802 45.3742 191.183 47.4604C190.553 47.5398 190.103 47.449 189.943 47.1652C190.143 48.9023 184.833 49.7652 185.943 47.0629C185.952 47.0358 185.962 47.0092 185.973 46.9835C184.603 49.7425 181.783 51.0255 179.333 52.5584C176.883 54.0798 174.393 56.6231 174.633 59.7796C174.833 62.3342 176.783 64.2417 178.743 65.5134C180.703 66.7964 182.903 67.7955 184.323 69.7825C186.713 73.1206 186.153 78.0142 184.943 82.079C184.702 82.7281 184.306 83.3089 183.79 83.7716C183.275 84.2343 182.655 84.5652 181.983 84.7358C181.584 82.5468 180.831 80.4376 179.753 78.491C180.005 80.7524 179.784 83.0415 179.103 85.2127C177.646 85.2767 176.191 85.044 174.826 84.5287C173.461 84.0134 172.215 83.2264 171.163 82.2152L172.673 88.9141C170.243 88.4032 167.793 88.9822 165.323 89.4251C165.259 88.667 165.156 87.9129 165.013 87.1656C164.625 84.9193 163.861 82.7545 162.753 80.7619C163.063 83.5309 162.66 86.333 161.583 88.9028C161.463 89.198 161.333 89.4932 161.193 89.777C157.393 89.5045 153.603 87.2905 154.323 81.534C154.64 79.6868 155.41 77.947 156.563 76.4701C158.523 73.7223 148.533 70.7817 149.143 67.4663C150.053 62.55 159.163 58.2013 158.443 53.2396C157.803 48.7433 157.929 38.5939 160.403 35.0958C163.978 30.042 160.013 19.5872 185.423 25.5243C194.877 27.733 198.153 18.4599 212.403 46.777C214.847 51.6319 205.963 49.9629 211.183 60.37C216.403 70.7771 201.453 79.0247 205.163 86.5298Z" fill="#2F2E41"/>
<path d="M7.52202e-06 402.279C-0.00272248 401.708 0.738004 401.244 1.65456 401.243H743.142C744.062 401.243 744.807 401.707 744.807 402.279C744.807 402.851 744.062 403.315 743.142 403.315H1.66447C0.747917 403.317 0.00271752 402.856 7.52202e-06 402.285V402.279Z" fill="#CCCCCC"/>
<path d="M380.953 188.939C381.86 188.624 382.687 188.114 383.376 187.445C384.065 186.776 384.598 185.964 384.939 185.067C385.28 184.169 385.42 183.208 385.349 182.251C385.279 181.293 384.999 180.363 384.53 179.525L411.843 148.211L399.84 146.48L375.147 177.181C373.793 178.062 372.808 179.41 372.381 180.969C371.953 182.528 372.112 184.189 372.828 185.639C373.544 187.088 374.766 188.224 376.264 188.833C377.761 189.441 379.43 189.479 380.953 188.939Z" fill="#FFB8B8"/>
<path d="M392.908 171.515L396.789 167.234L400.533 166.912L400.788 166.593L401.766 165.345L402.141 161.867L405.017 161.193L411.427 153.005L412.406 151.376L439.312 119.939L444.801 110.798L445.664 108.941L448.351 103.159L447.997 88.5765C448.585 87.3172 448.917 85.9535 448.974 84.5647C449.03 83.1759 448.809 81.7898 448.325 80.487C448.17 80.0649 447.989 79.653 447.782 79.2537L447.63 78.9702C447.237 78.272 446.765 77.6206 446.225 77.0288L446.216 77.0149C445.264 75.9718 444.107 75.1366 442.817 74.5616C441.812 74.1026 440.74 73.8057 439.642 73.6818C437.107 73.4009 434.556 74.0422 432.456 75.4884L429.154 77.7715L426.156 79.86L419.295 92.4898L418.846 93.3133L418.829 93.3335L397.702 132.204L391.333 143.925L390.363 145.705L390.272 150.912L387.21 151.492L383.593 154.199L383.23 158.81L381.528 166.245L381.269 166.664L382.854 167.604L383.007 167.691L383.296 167.945L387.33 171.408L389.776 173.514L389.857 173.579L390.492 174.178L392.908 171.515Z" fill="#3F3D56"/>
<path d="M160.948 37.7572C160.999 37.7762 161.043 37.7952 161.093 37.8142C161.189 37.8566 161.288 37.8926 161.388 37.9219C162.03 38.1577 162.7 38.3115 163.381 38.3797C163.671 38.4111 163.963 38.4265 164.255 38.4259C164.629 38.4272 165.003 38.4029 165.374 38.3533C165.787 38.3026 166.195 38.2196 166.595 38.1048C166.784 38.054 166.971 37.9936 167.155 37.9238C168.405 37.4798 169.535 36.7518 170.456 35.7972C171.377 34.8426 172.065 33.6873 172.464 32.4222V32.4159C172.506 32.2922 172.542 32.1664 172.572 32.0389C172.759 31.3311 172.853 30.6021 172.854 29.87V29.8574C172.859 28.0722 172.302 26.3307 171.263 24.8792C170.636 23.9909 169.912 23.8424 170.318 22.8267C171.614 19.5866 166.314 16.9379 163.186 18.3626C163.073 18.3518 162.96 18.3474 162.846 18.3492C160.74 18.3438 159.958 21.4547 158.702 23.206L158.739 23.2179C159.057 23.3292 159.332 23.5372 159.526 23.8127C159.72 24.0881 159.823 24.4174 159.821 24.7543C159.819 25.0913 159.711 25.4191 159.514 25.6919C159.316 25.9648 159.038 26.169 158.718 26.2761C157.882 26.5485 157.037 26.7891 156.184 26.998C153.369 30.3226 156.596 40.0491 160.948 37.7572Z" fill="#2F2E41"/>
<path d="M171.016 24.0389C171.131 27.0268 170.365 29.9824 168.814 32.5385C167.263 35.0946 164.994 37.1384 162.291 38.4159C161.193 38.9133 160.237 37.2854 161.343 36.7845C163.758 35.6703 165.788 33.8634 167.175 31.5932C168.561 29.323 169.242 26.6919 169.13 24.0342C169.067 22.8208 170.954 22.8293 171.016 24.0389Z" fill="#847ECC"/>
</g>
<defs>
<clipPath id="clip0_333_7914">
<rect width="744.807" height="403.554" fill="white"/>
</clipPath>
</defs>
</svg>
